<svg id="Layer_1" data-name="Layer 1" xmlns="http://www.w3.org/2000/svg" viewBox="0 0 759.01 602.31"><defs><style>.cls-1,.cls-2,.cls-3{fill:#fff;}.cls-2{font-size:173.02px;font-family:Satoshi-Black, Satoshi;font-weight:800;}.cls-3{font-size:54.12px;font-family:Satoshi-Bold, Satoshi;font-weight:700;letter-spacing:0.2em;}.cls-4{letter-spacing:0.18em;}</style></defs><title>Artboard 20</title><path class="cls-1" d="M386,59.72H326.31v59.72H266.59V59.72a59.72,59.72,0,1,1,119.44,0Z"/><path class="cls-1" d="M505.48,119.44a59.73,59.73,0,0,1-59.72,59.72V119.44H386V59.72h59.73A59.73,59.73,0,0,1,505.48,119.44Z"/><path class="cls-1" d="M445.76,179.16v59.72a59.73,59.73,0,0,1-119.45,0H386V179.16Z"/><path class="cls-1" d="M326.31,179.16v59.72H266.59a59.72,59.72,0,0,1,0-119.44v59.72Z"/><text class="cls-2" transform="translate(0 484.04)">Dignified</text><text class="cls-3" transform="translate(189.14 589.1)">Living ca<tspan class="cls-4" x="321.55" y="0">r</tspan><tspan x="352.72" y="0">e</tspan></text></svg>