<svg id="Layer_1" data-name="Layer 1" xmlns="http://www.w3.org/2000/svg" viewBox="0 0 1156.43 373.26"><defs><style>.cls-1,.cls-2,.cls-3{fill:#fff;}.cls-2{font-size:173.02px;font-family:Satoshi-Black, Satoshi;font-weight:800;}.cls-3{font-size:54.12px;font-family:Satoshi-Bold, Satoshi;font-weight:700;letter-spacing:0.2em;}.cls-4{letter-spacing:0.18em;}</style></defs><title>Artboard 16</title><path class="cls-1" d="M224,74.65H149.3V149.3H74.65V74.65a74.65,74.65,0,0,1,149.3,0Z"/><path class="cls-1" d="M373.26,149.3A74.65,74.65,0,0,1,298.6,224V149.3H224V74.65H298.6A74.66,74.66,0,0,1,373.26,149.3Z"/><path class="cls-1" d="M298.6,224V298.6a74.65,74.65,0,0,1-149.3,0H224V224Z"/><path class="cls-1" d="M149.3,224V298.6H74.65a74.65,74.65,0,0,1,0-149.3V224Z"/><text class="cls-2" transform="translate(396.17 230.23)">Dignified</text><text class="cls-3" transform="translate(762.74 294.15)">Living ca<tspan class="cls-4" x="321.55" y="0">r</tspan><tspan x="352.72" y="0">e</tspan></text></svg>