<svg id="Layer_1" data-name="Layer 1" xmlns="http://www.w3.org/2000/svg" viewBox="0 0 2421.71 1490.29"><defs><style>.cls-1{fill:#6d4bd3;}.cls-2{fill:#53e0f4;}</style></defs><title>Artboard 26</title><path class="cls-1" d="M111.77,37.26H74.51V74.51H37.26V37.26a37.26,37.26,0,1,1,74.51,0Z"/><path class="cls-2" d="M186.29,74.51A37.27,37.27,0,0,1,149,111.77V74.51H111.77V37.26H149A37.26,37.26,0,0,1,186.29,74.51Z"/><path class="cls-1" d="M149,111.77V149a37.26,37.26,0,0,1-74.52,0h37.26V111.77Z"/><path class="cls-2" d="M74.51,111.77V149H37.26a37.26,37.26,0,0,1,0-74.52v37.26Z"/><path class="cls-1" d="M298.06,37.26H260.8V74.51H223.54V37.26a37.26,37.26,0,0,1,74.52,0Z"/><path class="cls-2" d="M372.57,74.51a37.25,37.25,0,0,1-37.26,37.26V74.51H298.06V37.26h37.25A37.26,37.26,0,0,1,372.57,74.51Z"/><path class="cls-1" d="M335.31,111.77V149a37.26,37.26,0,0,1-74.51,0h37.26V111.77Z"/><path class="cls-2" d="M260.8,111.77V149H223.54a37.26,37.26,0,0,1,0-74.52v37.26Z"/><path class="cls-1" d="M484.34,37.26H447.09V74.51H409.83V37.26a37.26,37.26,0,1,1,74.51,0Z"/><path class="cls-2" d="M558.86,74.51a37.27,37.27,0,0,1-37.26,37.26V74.51H484.34V37.26H521.6A37.26,37.26,0,0,1,558.86,74.51Z"/><path class="cls-1" d="M521.6,111.77V149a37.26,37.26,0,0,1-74.51,0h37.25V111.77Z"/><path class="cls-2" d="M447.09,111.77V149H409.83a37.26,37.26,0,0,1,0-74.52v37.26Z"/><path class="cls-1" d="M670.63,37.26H633.37V74.51H596.11V37.26a37.26,37.26,0,1,1,74.52,0Z"/><path class="cls-2" d="M745.14,74.51a37.25,37.25,0,0,1-37.25,37.26V74.51H670.63V37.26h37.26A37.25,37.25,0,0,1,745.14,74.51Z"/><path class="cls-1" d="M707.89,111.77V149a37.26,37.26,0,0,1-74.52,0h37.26V111.77Z"/><path class="cls-2" d="M633.37,111.77V149H596.11a37.26,37.26,0,0,1,0-74.52v37.26Z"/><path class="cls-1" d="M856.91,37.26H819.66V74.51H782.4V37.26a37.26,37.26,0,1,1,74.51,0Z"/><path class="cls-2" d="M931.43,74.51a37.25,37.25,0,0,1-37.26,37.26V74.51H856.91V37.26h37.26A37.26,37.26,0,0,1,931.43,74.51Z"/><path class="cls-1" d="M894.17,111.77V149a37.26,37.26,0,0,1-74.51,0h37.25V111.77Z"/><path class="cls-2" d="M819.66,111.77V149H782.4a37.26,37.26,0,0,1,0-74.52v37.26Z"/><path class="cls-1" d="M1043.2,37.26h-37.26V74.51H968.69V37.26a37.26,37.26,0,1,1,74.51,0Z"/><path class="cls-2" d="M1117.71,74.51a37.25,37.25,0,0,1-37.25,37.26V74.51H1043.2V37.26h37.26A37.25,37.25,0,0,1,1117.71,74.51Z"/><path class="cls-1" d="M1080.46,111.77V149a37.26,37.26,0,0,1-74.52,0h37.26V111.77Z"/><path class="cls-2" d="M1005.94,111.77V149H968.69a37.26,37.26,0,0,1,0-74.52v37.26Z"/><path class="cls-1" d="M1229.49,37.26h-37.26V74.51H1155V37.26a37.26,37.26,0,0,1,74.52,0Z"/><path class="cls-2" d="M1304,74.51a37.25,37.25,0,0,1-37.26,37.26V74.51h-37.25V37.26h37.25A37.26,37.26,0,0,1,1304,74.51Z"/><path class="cls-1" d="M1266.74,111.77V149a37.26,37.26,0,0,1-74.51,0h37.26V111.77Z"/><path class="cls-2" d="M1192.23,111.77V149H1155a37.26,37.26,0,0,1,0-74.52v37.26Z"/><path class="cls-1" d="M1415.77,37.26h-37.26V74.51h-37.25V37.26a37.26,37.26,0,1,1,74.51,0Z"/><path class="cls-2" d="M1490.29,74.51A37.27,37.27,0,0,1,1453,111.77V74.51h-37.26V37.26H1453A37.26,37.26,0,0,1,1490.29,74.51Z"/><path class="cls-1" d="M1453,111.77V149a37.26,37.26,0,0,1-74.52,0h37.26V111.77Z"/><path class="cls-2" d="M1378.51,111.77V149h-37.25a37.26,37.26,0,0,1,0-74.52v37.26Z"/><path class="cls-1" d="M1602.06,37.26H1564.8V74.51h-37.26V37.26a37.26,37.26,0,0,1,74.52,0Z"/><path class="cls-2" d="M1676.57,74.51a37.25,37.25,0,0,1-37.26,37.26V74.51h-37.25V37.26h37.25A37.26,37.26,0,0,1,1676.57,74.51Z"/><path class="cls-1" d="M1639.31,111.77V149a37.26,37.26,0,0,1-74.51,0h37.26V111.77Z"/><path class="cls-2" d="M1564.8,111.77V149h-37.26a37.26,37.26,0,0,1,0-74.52v37.26Z"/><path class="cls-1" d="M1788.34,37.26h-37.25V74.51h-37.26V37.26a37.26,37.26,0,1,1,74.51,0Z"/><path class="cls-2" d="M1862.86,74.51a37.27,37.27,0,0,1-37.26,37.26V74.51h-37.26V37.26h37.26A37.26,37.26,0,0,1,1862.86,74.51Z"/><path class="cls-1" d="M1825.6,111.77V149a37.26,37.26,0,0,1-74.51,0h37.25V111.77Z"/><path class="cls-2" d="M1751.09,111.77V149h-37.26a37.26,37.26,0,0,1,0-74.52v37.26Z"/><path class="cls-1" d="M1974.63,37.26h-37.26V74.51h-37.26V37.26a37.26,37.26,0,1,1,74.52,0Z"/><path class="cls-2" d="M2049.14,74.51a37.25,37.25,0,0,1-37.25,37.26V74.51h-37.26V37.26h37.26A37.25,37.25,0,0,1,2049.14,74.51Z"/><path class="cls-1" d="M2011.89,111.77V149a37.26,37.26,0,0,1-74.52,0h37.26V111.77Z"/><path class="cls-2" d="M1937.37,111.77V149h-37.26a37.26,37.26,0,0,1,0-74.52v37.26Z"/><path class="cls-1" d="M2160.91,37.26h-37.25V74.51H2086.4V37.26a37.26,37.26,0,1,1,74.51,0Z"/><path class="cls-2" d="M2235.43,74.51a37.25,37.25,0,0,1-37.26,37.26V74.51h-37.26V37.26h37.26A37.26,37.26,0,0,1,2235.43,74.51Z"/><path class="cls-1" d="M2198.17,111.77V149a37.26,37.26,0,0,1-74.51,0h37.25V111.77Z"/><path class="cls-2" d="M2123.66,111.77V149H2086.4a37.26,37.26,0,0,1,0-74.52v37.26Z"/><path class="cls-1" d="M2347.2,37.26h-37.26V74.51h-37.25V37.26a37.26,37.26,0,1,1,74.51,0Z"/><path class="cls-2" d="M2421.71,74.51a37.25,37.25,0,0,1-37.25,37.26V74.51H2347.2V37.26h37.26A37.25,37.25,0,0,1,2421.71,74.51Z"/><path class="cls-1" d="M2384.46,111.77V149a37.26,37.26,0,0,1-74.52,0h37.26V111.77Z"/><path class="cls-2" d="M2309.94,111.77V149h-37.25a37.26,37.26,0,0,1,0-74.52v37.26Z"/><path class="cls-1" d="M111.77,223.54H74.51V260.8H37.26V223.54a37.26,37.26,0,0,1,74.51,0Z"/><path class="cls-2" d="M186.29,260.8A37.28,37.28,0,0,1,149,298.06V260.8H111.77V223.54H149A37.27,37.27,0,0,1,186.29,260.8Z"/><path class="cls-1" d="M149,298.06v37.25a37.26,37.26,0,0,1-74.52,0h37.26V298.06Z"/><path class="cls-2" d="M74.51,298.06v37.25H37.26a37.26,37.26,0,1,1,0-74.51v37.26Z"/><path class="cls-1" d="M298.06,223.54H260.8V260.8H223.54V223.54a37.26,37.26,0,0,1,74.52,0Z"/><path class="cls-2" d="M372.57,260.8a37.27,37.27,0,0,1-37.26,37.26V260.8H298.06V223.54h37.25A37.26,37.26,0,0,1,372.57,260.8Z"/><path class="cls-1" d="M335.31,298.06v37.25a37.26,37.26,0,1,1-74.51,0h37.26V298.06Z"/><path class="cls-2" d="M260.8,298.06v37.25H223.54a37.26,37.26,0,0,1,0-74.51v37.26Z"/><path class="cls-1" d="M484.34,223.54H447.09V260.8H409.83V223.54a37.26,37.26,0,0,1,74.51,0Z"/><path class="cls-2" d="M558.86,260.8a37.28,37.28,0,0,1-37.26,37.26V260.8H484.34V223.54H521.6A37.27,37.27,0,0,1,558.86,260.8Z"/><path class="cls-1" d="M521.6,298.06v37.25a37.26,37.26,0,1,1-74.51,0h37.25V298.06Z"/><path class="cls-2" d="M447.09,298.06v37.25H409.83a37.26,37.26,0,1,1,0-74.51v37.26Z"/><path class="cls-1" d="M670.63,223.54H633.37V260.8H596.11V223.54a37.26,37.26,0,0,1,74.52,0Z"/><path class="cls-2" d="M745.14,260.8a37.27,37.27,0,0,1-37.25,37.26V260.8H670.63V223.54h37.26A37.26,37.26,0,0,1,745.14,260.8Z"/><path class="cls-1" d="M707.89,298.06v37.25a37.26,37.26,0,1,1-74.52,0h37.26V298.06Z"/><path class="cls-2" d="M633.37,298.06v37.25H596.11a37.26,37.26,0,0,1,0-74.51v37.26Z"/><path class="cls-1" d="M856.91,223.54H819.66V260.8H782.4V223.54a37.26,37.26,0,0,1,74.51,0Z"/><path class="cls-2" d="M931.43,260.8a37.27,37.27,0,0,1-37.26,37.26V260.8H856.91V223.54h37.26A37.26,37.26,0,0,1,931.43,260.8Z"/><path class="cls-1" d="M894.17,298.06v37.25a37.26,37.26,0,1,1-74.51,0h37.25V298.06Z"/><path class="cls-2" d="M819.66,298.06v37.25H782.4a37.26,37.26,0,0,1,0-74.51v37.26Z"/><path class="cls-1" d="M1043.2,223.54h-37.26V260.8H968.69V223.54a37.26,37.26,0,0,1,74.51,0Z"/><path class="cls-2" d="M1117.71,260.8a37.27,37.27,0,0,1-37.25,37.26V260.8H1043.2V223.54h37.26A37.26,37.26,0,0,1,1117.71,260.8Z"/><path class="cls-1" d="M1080.46,298.06v37.25a37.26,37.26,0,0,1-74.52,0h37.26V298.06Z"/><path class="cls-2" d="M1005.94,298.06v37.25H968.69a37.26,37.26,0,1,1,0-74.51v37.26Z"/><path class="cls-1" d="M1229.49,223.54h-37.26V260.8H1155V223.54a37.26,37.26,0,0,1,74.52,0Z"/><path class="cls-2" d="M1304,260.8a37.27,37.27,0,0,1-37.26,37.26V260.8h-37.25V223.54h37.25A37.26,37.26,0,0,1,1304,260.8Z"/><path class="cls-1" d="M1266.74,298.06v37.25a37.26,37.26,0,1,1-74.51,0h37.26V298.06Z"/><path class="cls-2" d="M1192.23,298.06v37.25H1155a37.26,37.26,0,0,1,0-74.51v37.26Z"/><path class="cls-1" d="M1415.77,223.54h-37.26V260.8h-37.25V223.54a37.26,37.26,0,0,1,74.51,0Z"/><path class="cls-2" d="M1490.29,260.8A37.28,37.28,0,0,1,1453,298.06V260.8h-37.26V223.54H1453A37.27,37.27,0,0,1,1490.29,260.8Z"/><path class="cls-1" d="M1453,298.06v37.25a37.26,37.26,0,0,1-74.52,0h37.26V298.06Z"/><path class="cls-2" d="M1378.51,298.06v37.25h-37.25a37.26,37.26,0,1,1,0-74.51v37.26Z"/><path class="cls-1" d="M1602.06,223.54H1564.8V260.8h-37.26V223.54a37.26,37.26,0,0,1,74.52,0Z"/><path class="cls-2" d="M1676.57,260.8a37.27,37.27,0,0,1-37.26,37.26V260.8h-37.25V223.54h37.25A37.26,37.26,0,0,1,1676.57,260.8Z"/><path class="cls-1" d="M1639.31,298.06v37.25a37.26,37.26,0,1,1-74.51,0h37.26V298.06Z"/><path class="cls-2" d="M1564.8,298.06v37.25h-37.26a37.26,37.26,0,0,1,0-74.51v37.26Z"/><path class="cls-1" d="M1788.34,223.54h-37.25V260.8h-37.26V223.54a37.26,37.26,0,0,1,74.51,0Z"/><path class="cls-2" d="M1862.86,260.8a37.28,37.28,0,0,1-37.26,37.26V260.8h-37.26V223.54h37.26A37.27,37.27,0,0,1,1862.86,260.8Z"/><path class="cls-1" d="M1825.6,298.06v37.25a37.26,37.26,0,1,1-74.51,0h37.25V298.06Z"/><path class="cls-2" d="M1751.09,298.06v37.25h-37.26a37.26,37.26,0,1,1,0-74.51v37.26Z"/><path class="cls-1" d="M1974.63,223.54h-37.26V260.8h-37.26V223.54a37.26,37.26,0,0,1,74.52,0Z"/><path class="cls-2" d="M2049.14,260.8a37.27,37.27,0,0,1-37.25,37.26V260.8h-37.26V223.54h37.26A37.26,37.26,0,0,1,2049.14,260.8Z"/><path class="cls-1" d="M2011.89,298.06v37.25a37.26,37.26,0,1,1-74.52,0h37.26V298.06Z"/><path class="cls-2" d="M1937.37,298.06v37.25h-37.26a37.26,37.26,0,0,1,0-74.51v37.26Z"/><path class="cls-1" d="M2160.91,223.54h-37.25V260.8H2086.4V223.54a37.26,37.26,0,0,1,74.51,0Z"/><path class="cls-2" d="M2235.43,260.8a37.27,37.27,0,0,1-37.26,37.26V260.8h-37.26V223.54h37.26A37.26,37.26,0,0,1,2235.43,260.8Z"/><path class="cls-1" d="M2198.17,298.06v37.25a37.26,37.26,0,1,1-74.51,0h37.25V298.06Z"/><path class="cls-2" d="M2123.66,298.06v37.25H2086.4a37.26,37.26,0,0,1,0-74.51v37.26Z"/><path class="cls-1" d="M2347.2,223.54h-37.26V260.8h-37.25V223.54a37.26,37.26,0,0,1,74.51,0Z"/><path class="cls-2" d="M2421.71,260.8a37.27,37.27,0,0,1-37.25,37.26V260.8H2347.2V223.54h37.26A37.26,37.26,0,0,1,2421.71,260.8Z"/><path class="cls-1" d="M2384.46,298.06v37.25a37.26,37.26,0,0,1-74.52,0h37.26V298.06Z"/><path class="cls-2" d="M2309.94,298.06v37.25h-37.25a37.26,37.26,0,1,1,0-74.51v37.26Z"/><path class="cls-1" d="M111.77,409.83H74.51v37.26H37.26V409.83a37.26,37.26,0,1,1,74.51,0Z"/><path class="cls-2" d="M186.29,447.09A37.27,37.27,0,0,1,149,484.34V447.09H111.77V409.83H149A37.26,37.26,0,0,1,186.29,447.09Z"/><path class="cls-1" d="M149,484.34V521.6a37.26,37.26,0,0,1-74.52,0h37.26V484.34Z"/><path class="cls-2" d="M74.51,484.34V521.6H37.26a37.26,37.26,0,1,1,0-74.51v37.25Z"/><path class="cls-1" d="M298.06,409.83H260.8v37.26H223.54V409.83a37.26,37.26,0,0,1,74.52,0Z"/><path class="cls-2" d="M372.57,447.09a37.25,37.25,0,0,1-37.26,37.25V447.09H298.06V409.83h37.25A37.26,37.26,0,0,1,372.57,447.09Z"/><path class="cls-1" d="M335.31,484.34V521.6a37.26,37.26,0,0,1-74.51,0h37.26V484.34Z"/><path class="cls-2" d="M260.8,484.34V521.6H223.54a37.26,37.26,0,0,1,0-74.51v37.25Z"/><path class="cls-1" d="M484.34,409.83H447.09v37.26H409.83V409.83a37.26,37.26,0,1,1,74.51,0Z"/><path class="cls-2" d="M558.86,447.09a37.27,37.27,0,0,1-37.26,37.25V447.09H484.34V409.83H521.6A37.26,37.26,0,0,1,558.86,447.09Z"/><path class="cls-1" d="M521.6,484.34V521.6a37.26,37.26,0,0,1-74.51,0h37.25V484.34Z"/><path class="cls-2" d="M447.09,484.34V521.6H409.83a37.26,37.26,0,1,1,0-74.51v37.25Z"/><path class="cls-1" d="M670.63,409.83H633.37v37.26H596.11V409.83a37.26,37.26,0,1,1,74.52,0Z"/><path class="cls-2" d="M745.14,447.09a37.25,37.25,0,0,1-37.25,37.25V447.09H670.63V409.83h37.26A37.26,37.26,0,0,1,745.14,447.09Z"/><path class="cls-1" d="M707.89,484.34V521.6a37.26,37.26,0,0,1-74.52,0h37.26V484.34Z"/><path class="cls-2" d="M633.37,484.34V521.6H596.11a37.26,37.26,0,0,1,0-74.51v37.25Z"/><path class="cls-1" d="M856.91,409.83H819.66v37.26H782.4V409.83a37.26,37.26,0,1,1,74.51,0Z"/><path class="cls-2" d="M931.43,447.09a37.25,37.25,0,0,1-37.26,37.25V447.09H856.91V409.83h37.26A37.26,37.26,0,0,1,931.43,447.09Z"/><path class="cls-1" d="M894.17,484.34V521.6a37.26,37.26,0,0,1-74.51,0h37.25V484.34Z"/><path class="cls-2" d="M819.66,484.34V521.6H782.4a37.26,37.26,0,0,1,0-74.51v37.25Z"/><path class="cls-1" d="M1043.2,409.83h-37.26v37.26H968.69V409.83a37.26,37.26,0,1,1,74.51,0Z"/><path class="cls-2" d="M1117.71,447.09a37.25,37.25,0,0,1-37.25,37.25V447.09H1043.2V409.83h37.26A37.26,37.26,0,0,1,1117.71,447.09Z"/><path class="cls-1" d="M1080.46,484.34V521.6a37.26,37.26,0,0,1-74.52,0h37.26V484.34Z"/><path class="cls-2" d="M1005.94,484.34V521.6H968.69a37.26,37.26,0,1,1,0-74.51v37.25Z"/><path class="cls-1" d="M1229.49,409.83h-37.26v37.26H1155V409.83a37.26,37.26,0,0,1,74.52,0Z"/><path class="cls-2" d="M1304,447.09a37.25,37.25,0,0,1-37.26,37.25V447.09h-37.25V409.83h37.25A37.26,37.26,0,0,1,1304,447.09Z"/><path class="cls-1" d="M1266.74,484.34V521.6a37.26,37.26,0,0,1-74.51,0h37.26V484.34Z"/><path class="cls-2" d="M1192.23,484.34V521.6H1155a37.26,37.26,0,0,1,0-74.51v37.25Z"/><path class="cls-1" d="M1415.77,409.83h-37.26v37.26h-37.25V409.83a37.26,37.26,0,1,1,74.51,0Z"/><path class="cls-2" d="M1490.29,447.09A37.27,37.27,0,0,1,1453,484.34V447.09h-37.26V409.83H1453A37.26,37.26,0,0,1,1490.29,447.09Z"/><path class="cls-1" d="M1453,484.34V521.6a37.26,37.26,0,0,1-74.52,0h37.26V484.34Z"/><path class="cls-2" d="M1378.51,484.34V521.6h-37.25a37.26,37.26,0,1,1,0-74.51v37.25Z"/><path class="cls-1" d="M1602.06,409.83H1564.8v37.26h-37.26V409.83a37.26,37.26,0,0,1,74.52,0Z"/><path class="cls-2" d="M1676.57,447.09a37.25,37.25,0,0,1-37.26,37.25V447.09h-37.25V409.83h37.25A37.26,37.26,0,0,1,1676.57,447.09Z"/><path class="cls-1" d="M1639.31,484.34V521.6a37.26,37.26,0,0,1-74.51,0h37.26V484.34Z"/><path class="cls-2" d="M1564.8,484.34V521.6h-37.26a37.26,37.26,0,0,1,0-74.51v37.25Z"/><path class="cls-1" d="M1788.34,409.83h-37.25v37.26h-37.26V409.83a37.26,37.26,0,1,1,74.51,0Z"/><path class="cls-2" d="M1862.86,447.09a37.27,37.27,0,0,1-37.26,37.25V447.09h-37.26V409.83h37.26A37.26,37.26,0,0,1,1862.86,447.09Z"/><path class="cls-1" d="M1825.6,484.34V521.6a37.26,37.26,0,0,1-74.51,0h37.25V484.34Z"/><path class="cls-2" d="M1751.09,484.34V521.6h-37.26a37.26,37.26,0,1,1,0-74.51v37.25Z"/><path class="cls-1" d="M1974.63,409.83h-37.26v37.26h-37.26V409.83a37.26,37.26,0,1,1,74.52,0Z"/><path class="cls-2" d="M2049.14,447.09a37.25,37.25,0,0,1-37.25,37.25V447.09h-37.26V409.83h37.26A37.26,37.26,0,0,1,2049.14,447.09Z"/><path class="cls-1" d="M2011.89,484.34V521.6a37.26,37.26,0,0,1-74.52,0h37.26V484.34Z"/><path class="cls-2" d="M1937.37,484.34V521.6h-37.26a37.26,37.26,0,0,1,0-74.51v37.25Z"/><path class="cls-1" d="M2160.91,409.83h-37.25v37.26H2086.4V409.83a37.26,37.26,0,1,1,74.51,0Z"/><path class="cls-2" d="M2235.43,447.09a37.25,37.25,0,0,1-37.26,37.25V447.09h-37.26V409.83h37.26A37.26,37.26,0,0,1,2235.43,447.09Z"/><path class="cls-1" d="M2198.17,484.34V521.6a37.26,37.26,0,0,1-74.51,0h37.25V484.34Z"/><path class="cls-2" d="M2123.66,484.34V521.6H2086.4a37.26,37.26,0,0,1,0-74.51v37.25Z"/><path class="cls-1" d="M2347.2,409.83h-37.26v37.26h-37.25V409.83a37.26,37.26,0,1,1,74.51,0Z"/><path class="cls-2" d="M2421.71,447.09a37.25,37.25,0,0,1-37.25,37.25V447.09H2347.2V409.83h37.26A37.26,37.26,0,0,1,2421.71,447.09Z"/><path class="cls-1" d="M2384.46,484.34V521.6a37.26,37.26,0,0,1-74.52,0h37.26V484.34Z"/><path class="cls-2" d="M2309.94,484.34V521.6h-37.25a37.26,37.26,0,1,1,0-74.51v37.25Z"/><path class="cls-1" d="M111.77,596.11H74.51v37.26H37.26V596.11a37.26,37.26,0,0,1,74.51,0Z"/><path class="cls-2" d="M186.29,633.37A37.27,37.27,0,0,1,149,670.63V633.37H111.77V596.11H149A37.27,37.27,0,0,1,186.29,633.37Z"/><path class="cls-1" d="M149,670.63v37.26a37.26,37.26,0,0,1-74.52,0h37.26V670.63Z"/><path class="cls-2" d="M74.51,670.63v37.26H37.26a37.26,37.26,0,1,1,0-74.52v37.26Z"/><path class="cls-1" d="M298.06,596.11H260.8v37.26H223.54V596.11a37.26,37.26,0,0,1,74.52,0Z"/><path class="cls-2" d="M372.57,633.37a37.25,37.25,0,0,1-37.26,37.26V633.37H298.06V596.11h37.25A37.26,37.26,0,0,1,372.57,633.37Z"/><path class="cls-1" d="M335.31,670.63v37.26a37.26,37.26,0,0,1-74.51,0h37.26V670.63Z"/><path class="cls-2" d="M260.8,670.63v37.26H223.54a37.26,37.26,0,0,1,0-74.52v37.26Z"/><path class="cls-1" d="M484.34,596.11H447.09v37.26H409.83V596.11a37.26,37.26,0,0,1,74.51,0Z"/><path class="cls-2" d="M558.86,633.37a37.27,37.27,0,0,1-37.26,37.26V633.37H484.34V596.11H521.6A37.27,37.27,0,0,1,558.86,633.37Z"/><path class="cls-1" d="M521.6,670.63v37.26a37.26,37.26,0,0,1-74.51,0h37.25V670.63Z"/><path class="cls-2" d="M447.09,670.63v37.26H409.83a37.26,37.26,0,1,1,0-74.52v37.26Z"/><path class="cls-1" d="M670.63,596.11H633.37v37.26H596.11V596.11a37.26,37.26,0,0,1,74.52,0Z"/><path class="cls-2" d="M745.14,633.37a37.25,37.25,0,0,1-37.25,37.26V633.37H670.63V596.11h37.26A37.26,37.26,0,0,1,745.14,633.37Z"/><path class="cls-1" d="M707.89,670.63v37.26a37.26,37.26,0,0,1-74.52,0h37.26V670.63Z"/><path class="cls-2" d="M633.37,670.63v37.26H596.11a37.26,37.26,0,0,1,0-74.52v37.26Z"/><path class="cls-1" d="M856.91,596.11H819.66v37.26H782.4V596.11a37.26,37.26,0,0,1,74.51,0Z"/><path class="cls-2" d="M931.43,633.37a37.25,37.25,0,0,1-37.26,37.26V633.37H856.91V596.11h37.26A37.26,37.26,0,0,1,931.43,633.37Z"/><path class="cls-1" d="M894.17,670.63v37.26a37.26,37.26,0,0,1-74.51,0h37.25V670.63Z"/><path class="cls-2" d="M819.66,670.63v37.26H782.4a37.26,37.26,0,0,1,0-74.52v37.26Z"/><path class="cls-1" d="M1043.2,596.11h-37.26v37.26H968.69V596.11a37.26,37.26,0,0,1,74.51,0Z"/><path class="cls-2" d="M1117.71,633.37a37.25,37.25,0,0,1-37.25,37.26V633.37H1043.2V596.11h37.26A37.26,37.26,0,0,1,1117.71,633.37Z"/><path class="cls-1" d="M1080.46,670.63v37.26a37.26,37.26,0,0,1-74.52,0h37.26V670.63Z"/><path class="cls-2" d="M1005.94,670.63v37.26H968.69a37.26,37.26,0,1,1,0-74.52v37.26Z"/><path class="cls-1" d="M1229.49,596.11h-37.26v37.26H1155V596.11a37.26,37.26,0,0,1,74.52,0Z"/><path class="cls-2" d="M1304,633.37a37.25,37.25,0,0,1-37.26,37.26V633.37h-37.25V596.11h37.25A37.26,37.26,0,0,1,1304,633.37Z"/><path class="cls-1" d="M1266.74,670.63v37.26a37.26,37.26,0,0,1-74.51,0h37.26V670.63Z"/><path class="cls-2" d="M1192.23,670.63v37.26H1155a37.26,37.26,0,0,1,0-74.52v37.26Z"/><path class="cls-1" d="M1415.77,596.11h-37.26v37.26h-37.25V596.11a37.26,37.26,0,0,1,74.51,0Z"/><path class="cls-2" d="M1490.29,633.37A37.27,37.27,0,0,1,1453,670.63V633.37h-37.26V596.11H1453A37.27,37.27,0,0,1,1490.29,633.37Z"/><path class="cls-1" d="M1453,670.63v37.26a37.26,37.26,0,0,1-74.52,0h37.26V670.63Z"/><path class="cls-2" d="M1378.51,670.63v37.26h-37.25a37.26,37.26,0,1,1,0-74.52v37.26Z"/><path class="cls-1" d="M1602.06,596.11H1564.8v37.26h-37.26V596.11a37.26,37.26,0,0,1,74.52,0Z"/><path class="cls-2" d="M1676.57,633.37a37.25,37.25,0,0,1-37.26,37.26V633.37h-37.25V596.11h37.25A37.26,37.26,0,0,1,1676.57,633.37Z"/><path class="cls-1" d="M1639.31,670.63v37.26a37.26,37.26,0,0,1-74.51,0h37.26V670.63Z"/><path class="cls-2" d="M1564.8,670.63v37.26h-37.26a37.26,37.26,0,0,1,0-74.52v37.26Z"/><path class="cls-1" d="M1788.34,596.11h-37.25v37.26h-37.26V596.11a37.26,37.26,0,0,1,74.51,0Z"/><path class="cls-2" d="M1862.86,633.37a37.27,37.27,0,0,1-37.26,37.26V633.37h-37.26V596.11h37.26A37.27,37.27,0,0,1,1862.86,633.37Z"/><path class="cls-1" d="M1825.6,670.63v37.26a37.26,37.26,0,0,1-74.51,0h37.25V670.63Z"/><path class="cls-2" d="M1751.09,670.63v37.26h-37.26a37.26,37.26,0,1,1,0-74.52v37.26Z"/><path class="cls-1" d="M1974.63,596.11h-37.26v37.26h-37.26V596.11a37.26,37.26,0,0,1,74.52,0Z"/><path class="cls-2" d="M2049.14,633.37a37.25,37.25,0,0,1-37.25,37.26V633.37h-37.26V596.11h37.26A37.26,37.26,0,0,1,2049.14,633.37Z"/><path class="cls-1" d="M2011.89,670.63v37.26a37.26,37.26,0,0,1-74.52,0h37.26V670.63Z"/><path class="cls-2" d="M1937.37,670.63v37.26h-37.26a37.26,37.26,0,0,1,0-74.52v37.26Z"/><path class="cls-1" d="M2160.91,596.11h-37.25v37.26H2086.4V596.11a37.26,37.26,0,0,1,74.51,0Z"/><path class="cls-2" d="M2235.43,633.37a37.25,37.25,0,0,1-37.26,37.26V633.37h-37.26V596.11h37.26A37.26,37.26,0,0,1,2235.43,633.37Z"/><path class="cls-1" d="M2198.17,670.63v37.26a37.26,37.26,0,0,1-74.51,0h37.25V670.63Z"/><path class="cls-2" d="M2123.66,670.63v37.26H2086.4a37.26,37.26,0,0,1,0-74.52v37.26Z"/><path class="cls-1" d="M2347.2,596.11h-37.26v37.26h-37.25V596.11a37.26,37.26,0,0,1,74.51,0Z"/><path class="cls-2" d="M2421.71,633.37a37.25,37.25,0,0,1-37.25,37.26V633.37H2347.2V596.11h37.26A37.26,37.26,0,0,1,2421.71,633.37Z"/><path class="cls-1" d="M2384.46,670.63v37.26a37.26,37.26,0,0,1-74.52,0h37.26V670.63Z"/><path class="cls-2" d="M2309.94,670.63v37.26h-37.25a37.26,37.26,0,1,1,0-74.52v37.26Z"/><path class="cls-1" d="M111.77,782.4H74.51v37.26H37.26V782.4a37.26,37.26,0,0,1,74.51,0Z"/><path class="cls-2" d="M186.29,819.66A37.27,37.27,0,0,1,149,856.91V819.66H111.77V782.4H149A37.26,37.26,0,0,1,186.29,819.66Z"/><path class="cls-1" d="M149,856.91v37.26a37.26,37.26,0,0,1-74.52,0h37.26V856.91Z"/><path class="cls-2" d="M74.51,856.91v37.26H37.26a37.26,37.26,0,1,1,0-74.51v37.25Z"/><path class="cls-1" d="M298.06,782.4H260.8v37.26H223.54V782.4a37.26,37.26,0,0,1,74.52,0Z"/><path class="cls-2" d="M372.57,819.66a37.25,37.25,0,0,1-37.26,37.25V819.66H298.06V782.4h37.25A37.26,37.26,0,0,1,372.57,819.66Z"/><path class="cls-1" d="M335.31,856.91v37.26a37.26,37.26,0,1,1-74.51,0h37.26V856.91Z"/><path class="cls-2" d="M260.8,856.91v37.26H223.54a37.26,37.26,0,0,1,0-74.51v37.25Z"/><path class="cls-1" d="M484.34,782.4H447.09v37.26H409.83V782.4a37.26,37.26,0,0,1,74.51,0Z"/><path class="cls-2" d="M558.86,819.66a37.27,37.27,0,0,1-37.26,37.25V819.66H484.34V782.4H521.6A37.26,37.26,0,0,1,558.86,819.66Z"/><path class="cls-1" d="M521.6,856.91v37.26a37.26,37.26,0,1,1-74.51,0h37.25V856.91Z"/><path class="cls-2" d="M447.09,856.91v37.26H409.83a37.26,37.26,0,1,1,0-74.51v37.25Z"/><path class="cls-1" d="M670.63,782.4H633.37v37.26H596.11V782.4a37.26,37.26,0,0,1,74.52,0Z"/><path class="cls-2" d="M745.14,819.66a37.25,37.25,0,0,1-37.25,37.25V819.66H670.63V782.4h37.26A37.26,37.26,0,0,1,745.14,819.66Z"/><path class="cls-1" d="M707.89,856.91v37.26a37.26,37.26,0,1,1-74.52,0h37.26V856.91Z"/><path class="cls-2" d="M633.37,856.91v37.26H596.11a37.26,37.26,0,0,1,0-74.51v37.25Z"/><path class="cls-1" d="M856.91,782.4H819.66v37.26H782.4V782.4a37.26,37.26,0,0,1,74.51,0Z"/><path class="cls-2" d="M931.43,819.66a37.25,37.25,0,0,1-37.26,37.25V819.66H856.91V782.4h37.26A37.26,37.26,0,0,1,931.43,819.66Z"/><path class="cls-1" d="M894.17,856.91v37.26a37.26,37.26,0,1,1-74.51,0h37.25V856.91Z"/><path class="cls-2" d="M819.66,856.91v37.26H782.4a37.26,37.26,0,0,1,0-74.51v37.25Z"/><path class="cls-1" d="M1043.2,782.4h-37.26v37.26H968.69V782.4a37.26,37.26,0,0,1,74.51,0Z"/><path class="cls-2" d="M1117.71,819.66a37.25,37.25,0,0,1-37.25,37.25V819.66H1043.2V782.4h37.26A37.26,37.26,0,0,1,1117.71,819.66Z"/><path class="cls-1" d="M1080.46,856.91v37.26a37.26,37.26,0,0,1-74.52,0h37.26V856.91Z"/><path class="cls-2" d="M1005.94,856.91v37.26H968.69a37.26,37.26,0,1,1,0-74.51v37.25Z"/><path class="cls-1" d="M1229.49,782.4h-37.26v37.26H1155V782.4a37.26,37.26,0,0,1,74.52,0Z"/><path class="cls-2" d="M1304,819.66a37.25,37.25,0,0,1-37.26,37.25V819.66h-37.25V782.4h37.25A37.26,37.26,0,0,1,1304,819.66Z"/><path class="cls-1" d="M1266.74,856.91v37.26a37.26,37.26,0,1,1-74.51,0h37.26V856.91Z"/><path class="cls-2" d="M1192.23,856.91v37.26H1155a37.26,37.26,0,0,1,0-74.51v37.25Z"/><path class="cls-1" d="M1415.77,782.4h-37.26v37.26h-37.25V782.4a37.26,37.26,0,0,1,74.51,0Z"/><path class="cls-2" d="M1490.29,819.66A37.27,37.27,0,0,1,1453,856.91V819.66h-37.26V782.4H1453A37.26,37.26,0,0,1,1490.29,819.66Z"/><path class="cls-1" d="M1453,856.91v37.26a37.26,37.26,0,0,1-74.52,0h37.26V856.91Z"/><path class="cls-2" d="M1378.51,856.91v37.26h-37.25a37.26,37.26,0,1,1,0-74.51v37.25Z"/><path class="cls-1" d="M1602.06,782.4H1564.8v37.26h-37.26V782.4a37.26,37.26,0,0,1,74.52,0Z"/><path class="cls-2" d="M1676.57,819.66a37.25,37.25,0,0,1-37.26,37.25V819.66h-37.25V782.4h37.25A37.26,37.26,0,0,1,1676.57,819.66Z"/><path class="cls-1" d="M1639.31,856.91v37.26a37.26,37.26,0,1,1-74.51,0h37.26V856.91Z"/><path class="cls-2" d="M1564.8,856.91v37.26h-37.26a37.26,37.26,0,0,1,0-74.51v37.25Z"/><path class="cls-1" d="M1788.34,782.4h-37.25v37.26h-37.26V782.4a37.26,37.26,0,0,1,74.51,0Z"/><path class="cls-2" d="M1862.86,819.66a37.27,37.27,0,0,1-37.26,37.25V819.66h-37.26V782.4h37.26A37.26,37.26,0,0,1,1862.86,819.66Z"/><path class="cls-1" d="M1825.6,856.91v37.26a37.26,37.26,0,1,1-74.51,0h37.25V856.91Z"/><path class="cls-2" d="M1751.09,856.91v37.26h-37.26a37.26,37.26,0,1,1,0-74.51v37.25Z"/><path class="cls-1" d="M1974.63,782.4h-37.26v37.26h-37.26V782.4a37.26,37.26,0,0,1,74.52,0Z"/><path class="cls-2" d="M2049.14,819.66a37.25,37.25,0,0,1-37.25,37.25V819.66h-37.26V782.4h37.26A37.26,37.26,0,0,1,2049.14,819.66Z"/><path class="cls-1" d="M2011.89,856.91v37.26a37.26,37.26,0,1,1-74.52,0h37.26V856.91Z"/><path class="cls-2" d="M1937.37,856.91v37.26h-37.26a37.26,37.26,0,0,1,0-74.51v37.25Z"/><path class="cls-1" d="M2160.91,782.4h-37.25v37.26H2086.4V782.4a37.26,37.26,0,0,1,74.51,0Z"/><path class="cls-2" d="M2235.43,819.66a37.25,37.25,0,0,1-37.26,37.25V819.66h-37.26V782.4h37.26A37.26,37.26,0,0,1,2235.43,819.66Z"/><path class="cls-1" d="M2198.17,856.91v37.26a37.26,37.26,0,1,1-74.51,0h37.25V856.91Z"/><path class="cls-2" d="M2123.66,856.91v37.26H2086.4a37.26,37.26,0,0,1,0-74.51v37.25Z"/><path class="cls-1" d="M2347.2,782.4h-37.26v37.26h-37.25V782.4a37.26,37.26,0,0,1,74.51,0Z"/><path class="cls-2" d="M2421.71,819.66a37.25,37.25,0,0,1-37.25,37.25V819.66H2347.2V782.4h37.26A37.26,37.26,0,0,1,2421.71,819.66Z"/><path class="cls-1" d="M2384.46,856.91v37.26a37.26,37.26,0,0,1-74.52,0h37.26V856.91Z"/><path class="cls-2" d="M2309.94,856.91v37.26h-37.25a37.26,37.26,0,1,1,0-74.51v37.25Z"/><path class="cls-1" d="M111.77,968.69H74.51v37.25H37.26V968.69a37.26,37.26,0,1,1,74.51,0Z"/><path class="cls-2" d="M186.29,1005.94A37.27,37.27,0,0,1,149,1043.2v-37.26H111.77V968.69H149A37.26,37.26,0,0,1,186.29,1005.94Z"/><path class="cls-1" d="M149,1043.2v37.26a37.26,37.26,0,0,1-74.52,0h37.26V1043.2Z"/><path class="cls-2" d="M74.51,1043.2v37.26H37.26a37.26,37.26,0,0,1,0-74.52v37.26Z"/><path class="cls-1" d="M298.06,968.69H260.8v37.25H223.54V968.69a37.26,37.26,0,0,1,74.52,0Z"/><path class="cls-2" d="M372.57,1005.94a37.25,37.25,0,0,1-37.26,37.26v-37.26H298.06V968.69h37.25A37.26,37.26,0,0,1,372.57,1005.94Z"/><path class="cls-1" d="M335.31,1043.2v37.26a37.26,37.26,0,0,1-74.51,0h37.26V1043.2Z"/><path class="cls-2" d="M260.8,1043.2v37.26H223.54a37.26,37.26,0,0,1,0-74.52v37.26Z"/><path class="cls-1" d="M484.34,968.69H447.09v37.25H409.83V968.69a37.26,37.26,0,1,1,74.51,0Z"/><path class="cls-2" d="M558.86,1005.94a37.27,37.27,0,0,1-37.26,37.26v-37.26H484.34V968.69H521.6A37.26,37.26,0,0,1,558.86,1005.94Z"/><path class="cls-1" d="M521.6,1043.2v37.26a37.26,37.26,0,0,1-74.51,0h37.25V1043.2Z"/><path class="cls-2" d="M447.09,1043.2v37.26H409.83a37.26,37.26,0,0,1,0-74.52v37.26Z"/><path class="cls-1" d="M670.63,968.69H633.37v37.25H596.11V968.69a37.26,37.26,0,1,1,74.52,0Z"/><path class="cls-2" d="M745.14,1005.94a37.25,37.25,0,0,1-37.25,37.26v-37.26H670.63V968.69h37.26A37.25,37.25,0,0,1,745.14,1005.94Z"/><path class="cls-1" d="M707.89,1043.2v37.26a37.26,37.26,0,0,1-74.52,0h37.26V1043.2Z"/><path class="cls-2" d="M633.37,1043.2v37.26H596.11a37.26,37.26,0,0,1,0-74.52v37.26Z"/><path class="cls-1" d="M856.91,968.69H819.66v37.25H782.4V968.69a37.26,37.26,0,1,1,74.51,0Z"/><path class="cls-2" d="M931.43,1005.94a37.25,37.25,0,0,1-37.26,37.26v-37.26H856.91V968.69h37.26A37.26,37.26,0,0,1,931.43,1005.94Z"/><path class="cls-1" d="M894.17,1043.2v37.26a37.26,37.26,0,0,1-74.51,0h37.25V1043.2Z"/><path class="cls-2" d="M819.66,1043.2v37.26H782.4a37.26,37.26,0,0,1,0-74.52v37.26Z"/><path class="cls-1" d="M1043.2,968.69h-37.26v37.25H968.69V968.69a37.26,37.26,0,1,1,74.51,0Z"/><path class="cls-2" d="M1117.71,1005.94a37.25,37.25,0,0,1-37.25,37.26v-37.26H1043.2V968.69h37.26A37.25,37.25,0,0,1,1117.71,1005.94Z"/><path class="cls-1" d="M1080.46,1043.2v37.26a37.26,37.26,0,0,1-74.52,0h37.26V1043.2Z"/><path class="cls-2" d="M1005.94,1043.2v37.26H968.69a37.26,37.26,0,0,1,0-74.52v37.26Z"/><path class="cls-1" d="M1229.49,968.69h-37.26v37.25H1155V968.69a37.26,37.26,0,0,1,74.52,0Z"/><path class="cls-2" d="M1304,1005.94a37.25,37.25,0,0,1-37.26,37.26v-37.26h-37.25V968.69h37.25A37.26,37.26,0,0,1,1304,1005.94Z"/><path class="cls-1" d="M1266.74,1043.2v37.26a37.26,37.26,0,0,1-74.51,0h37.26V1043.2Z"/><path class="cls-2" d="M1192.23,1043.2v37.26H1155a37.26,37.26,0,0,1,0-74.52v37.26Z"/><path class="cls-1" d="M1415.77,968.69h-37.26v37.25h-37.25V968.69a37.26,37.26,0,1,1,74.51,0Z"/><path class="cls-2" d="M1490.29,1005.94A37.27,37.27,0,0,1,1453,1043.2v-37.26h-37.26V968.69H1453A37.26,37.26,0,0,1,1490.29,1005.94Z"/><path class="cls-1" d="M1453,1043.2v37.26a37.26,37.26,0,0,1-74.52,0h37.26V1043.2Z"/><path class="cls-2" d="M1378.51,1043.2v37.26h-37.25a37.26,37.26,0,0,1,0-74.52v37.26Z"/><path class="cls-1" d="M1602.06,968.69H1564.8v37.25h-37.26V968.69a37.26,37.26,0,0,1,74.52,0Z"/><path class="cls-2" d="M1676.57,1005.94a37.25,37.25,0,0,1-37.26,37.26v-37.26h-37.25V968.69h37.25A37.26,37.26,0,0,1,1676.57,1005.94Z"/><path class="cls-1" d="M1639.31,1043.2v37.26a37.26,37.26,0,0,1-74.51,0h37.26V1043.2Z"/><path class="cls-2" d="M1564.8,1043.2v37.26h-37.26a37.26,37.26,0,0,1,0-74.52v37.26Z"/><path class="cls-1" d="M1788.34,968.69h-37.25v37.25h-37.26V968.69a37.26,37.26,0,1,1,74.51,0Z"/><path class="cls-2" d="M1862.86,1005.94a37.27,37.27,0,0,1-37.26,37.26v-37.26h-37.26V968.69h37.26A37.26,37.26,0,0,1,1862.86,1005.94Z"/><path class="cls-1" d="M1825.6,1043.2v37.26a37.26,37.26,0,0,1-74.51,0h37.25V1043.2Z"/><path class="cls-2" d="M1751.09,1043.2v37.26h-37.26a37.26,37.26,0,0,1,0-74.52v37.26Z"/><path class="cls-1" d="M1974.63,968.69h-37.26v37.25h-37.26V968.69a37.26,37.26,0,1,1,74.52,0Z"/><path class="cls-2" d="M2049.14,1005.94a37.25,37.25,0,0,1-37.25,37.26v-37.26h-37.26V968.69h37.26A37.25,37.25,0,0,1,2049.14,1005.94Z"/><path class="cls-1" d="M2011.89,1043.2v37.26a37.26,37.26,0,0,1-74.52,0h37.26V1043.2Z"/><path class="cls-2" d="M1937.37,1043.2v37.26h-37.26a37.26,37.26,0,0,1,0-74.52v37.26Z"/><path class="cls-1" d="M2160.91,968.69h-37.25v37.25H2086.4V968.69a37.26,37.26,0,1,1,74.51,0Z"/><path class="cls-2" d="M2235.43,1005.94a37.25,37.25,0,0,1-37.26,37.26v-37.26h-37.26V968.69h37.26A37.26,37.26,0,0,1,2235.43,1005.94Z"/><path class="cls-1" d="M2198.17,1043.2v37.26a37.26,37.26,0,0,1-74.51,0h37.25V1043.2Z"/><path class="cls-2" d="M2123.66,1043.2v37.26H2086.4a37.26,37.26,0,0,1,0-74.52v37.26Z"/><path class="cls-1" d="M2347.2,968.69h-37.26v37.25h-37.25V968.69a37.26,37.26,0,1,1,74.51,0Z"/><path class="cls-2" d="M2421.71,1005.94a37.25,37.25,0,0,1-37.25,37.26v-37.26H2347.2V968.69h37.26A37.25,37.25,0,0,1,2421.71,1005.94Z"/><path class="cls-1" d="M2384.46,1043.2v37.26a37.26,37.26,0,0,1-74.52,0h37.26V1043.2Z"/><path class="cls-2" d="M2309.94,1043.2v37.26h-37.25a37.26,37.26,0,0,1,0-74.52v37.26Z"/><path class="cls-1" d="M111.77,1155H74.51v37.26H37.26V1155a37.26,37.26,0,0,1,74.51,0Z"/><path class="cls-2" d="M186.29,1192.23A37.28,37.28,0,0,1,149,1229.49v-37.26H111.77V1155H149A37.26,37.26,0,0,1,186.29,1192.23Z"/><path class="cls-1" d="M149,1229.49v37.25a37.26,37.26,0,0,1-74.52,0h37.26v-37.25Z"/><path class="cls-2" d="M74.51,1229.49v37.25H37.26a37.26,37.26,0,1,1,0-74.51v37.26Z"/><path class="cls-1" d="M298.06,1155H260.8v37.26H223.54V1155a37.26,37.26,0,0,1,74.52,0Z"/><path class="cls-2" d="M372.57,1192.23a37.27,37.27,0,0,1-37.26,37.26v-37.26H298.06V1155h37.25A37.26,37.26,0,0,1,372.57,1192.23Z"/><path class="cls-1" d="M335.31,1229.49v37.25a37.26,37.26,0,1,1-74.51,0h37.26v-37.25Z"/><path class="cls-2" d="M260.8,1229.49v37.25H223.54a37.26,37.26,0,0,1,0-74.51v37.26Z"/><path class="cls-1" d="M484.34,1155H447.09v37.26H409.83V1155a37.26,37.26,0,0,1,74.51,0Z"/><path class="cls-2" d="M558.86,1192.23a37.28,37.28,0,0,1-37.26,37.26v-37.26H484.34V1155H521.6A37.26,37.26,0,0,1,558.86,1192.23Z"/><path class="cls-1" d="M521.6,1229.49v37.25a37.26,37.26,0,1,1-74.51,0h37.25v-37.25Z"/><path class="cls-2" d="M447.09,1229.49v37.25H409.83a37.26,37.26,0,1,1,0-74.51v37.26Z"/><path class="cls-1" d="M670.63,1155H633.37v37.26H596.11V1155a37.26,37.26,0,0,1,74.52,0Z"/><path class="cls-2" d="M745.14,1192.23a37.27,37.27,0,0,1-37.25,37.26v-37.26H670.63V1155h37.26A37.26,37.26,0,0,1,745.14,1192.23Z"/><path class="cls-1" d="M707.89,1229.49v37.25a37.26,37.26,0,1,1-74.52,0h37.26v-37.25Z"/><path class="cls-2" d="M633.37,1229.49v37.25H596.11a37.26,37.26,0,0,1,0-74.51v37.26Z"/><path class="cls-1" d="M856.91,1155H819.66v37.26H782.4V1155a37.26,37.26,0,0,1,74.51,0Z"/><path class="cls-2" d="M931.43,1192.23a37.27,37.27,0,0,1-37.26,37.26v-37.26H856.91V1155h37.26A37.26,37.26,0,0,1,931.43,1192.23Z"/><path class="cls-1" d="M894.17,1229.49v37.25a37.26,37.26,0,1,1-74.51,0h37.25v-37.25Z"/><path class="cls-2" d="M819.66,1229.49v37.25H782.4a37.26,37.26,0,0,1,0-74.51v37.26Z"/><path class="cls-1" d="M1043.2,1155h-37.26v37.26H968.69V1155a37.26,37.26,0,0,1,74.51,0Z"/><path class="cls-2" d="M1117.71,1192.23a37.27,37.27,0,0,1-37.25,37.26v-37.26H1043.2V1155h37.26A37.26,37.26,0,0,1,1117.71,1192.23Z"/><path class="cls-1" d="M1080.46,1229.49v37.25a37.26,37.26,0,0,1-74.52,0h37.26v-37.25Z"/><path class="cls-2" d="M1005.94,1229.49v37.25H968.69a37.26,37.26,0,1,1,0-74.51v37.26Z"/><path class="cls-1" d="M1229.49,1155h-37.26v37.26H1155V1155a37.26,37.26,0,0,1,74.52,0Z"/><path class="cls-2" d="M1304,1192.23a37.27,37.27,0,0,1-37.26,37.26v-37.26h-37.25V1155h37.25A37.26,37.26,0,0,1,1304,1192.23Z"/><path class="cls-1" d="M1266.74,1229.49v37.25a37.26,37.26,0,1,1-74.51,0h37.26v-37.25Z"/><path class="cls-2" d="M1192.23,1229.49v37.25H1155a37.26,37.26,0,0,1,0-74.51v37.26Z"/><path class="cls-1" d="M1415.77,1155h-37.26v37.26h-37.25V1155a37.26,37.26,0,0,1,74.51,0Z"/><path class="cls-2" d="M1490.29,1192.23a37.28,37.28,0,0,1-37.26,37.26v-37.26h-37.26V1155H1453A37.26,37.26,0,0,1,1490.29,1192.23Z"/><path class="cls-1" d="M1453,1229.49v37.25a37.26,37.26,0,0,1-74.52,0h37.26v-37.25Z"/><path class="cls-2" d="M1378.51,1229.49v37.25h-37.25a37.26,37.26,0,1,1,0-74.51v37.26Z"/><path class="cls-1" d="M1602.06,1155H1564.8v37.26h-37.26V1155a37.26,37.26,0,0,1,74.52,0Z"/><path class="cls-2" d="M1676.57,1192.23a37.27,37.27,0,0,1-37.26,37.26v-37.26h-37.25V1155h37.25A37.26,37.26,0,0,1,1676.57,1192.23Z"/><path class="cls-1" d="M1639.31,1229.49v37.25a37.26,37.26,0,1,1-74.51,0h37.26v-37.25Z"/><path class="cls-2" d="M1564.8,1229.49v37.25h-37.26a37.26,37.26,0,0,1,0-74.51v37.26Z"/><path class="cls-1" d="M1788.34,1155h-37.25v37.26h-37.26V1155a37.26,37.26,0,0,1,74.51,0Z"/><path class="cls-2" d="M1862.86,1192.23a37.28,37.28,0,0,1-37.26,37.26v-37.26h-37.26V1155h37.26A37.26,37.26,0,0,1,1862.86,1192.23Z"/><path class="cls-1" d="M1825.6,1229.49v37.25a37.26,37.26,0,1,1-74.51,0h37.25v-37.25Z"/><path class="cls-2" d="M1751.09,1229.49v37.25h-37.26a37.26,37.26,0,1,1,0-74.51v37.26Z"/><path class="cls-1" d="M1974.63,1155h-37.26v37.26h-37.26V1155a37.26,37.26,0,0,1,74.52,0Z"/><path class="cls-2" d="M2049.14,1192.23a37.27,37.27,0,0,1-37.25,37.26v-37.26h-37.26V1155h37.26A37.26,37.26,0,0,1,2049.14,1192.23Z"/><path class="cls-1" d="M2011.89,1229.49v37.25a37.26,37.26,0,1,1-74.52,0h37.26v-37.25Z"/><path class="cls-2" d="M1937.37,1229.49v37.25h-37.26a37.26,37.26,0,0,1,0-74.51v37.26Z"/><path class="cls-1" d="M2160.91,1155h-37.25v37.26H2086.4V1155a37.26,37.26,0,0,1,74.51,0Z"/><path class="cls-2" d="M2235.43,1192.23a37.27,37.27,0,0,1-37.26,37.26v-37.26h-37.26V1155h37.26A37.26,37.26,0,0,1,2235.43,1192.23Z"/><path class="cls-1" d="M2198.17,1229.49v37.25a37.26,37.26,0,1,1-74.51,0h37.25v-37.25Z"/><path class="cls-2" d="M2123.66,1229.49v37.25H2086.4a37.26,37.26,0,0,1,0-74.51v37.26Z"/><path class="cls-1" d="M2347.2,1155h-37.26v37.26h-37.25V1155a37.26,37.26,0,0,1,74.51,0Z"/><path class="cls-2" d="M2421.71,1192.23a37.27,37.27,0,0,1-37.25,37.26v-37.26H2347.2V1155h37.26A37.26,37.26,0,0,1,2421.71,1192.23Z"/><path class="cls-1" d="M2384.46,1229.49v37.25a37.26,37.26,0,0,1-74.52,0h37.26v-37.25Z"/><path class="cls-2" d="M2309.94,1229.49v37.25h-37.25a37.26,37.26,0,1,1,0-74.51v37.26Z"/><path class="cls-1" d="M111.77,1341.26H74.51v37.25H37.26v-37.25a37.26,37.26,0,1,1,74.51,0Z"/><path class="cls-2" d="M186.29,1378.51A37.27,37.27,0,0,1,149,1415.77v-37.26H111.77v-37.25H149A37.26,37.26,0,0,1,186.29,1378.51Z"/><path class="cls-1" d="M149,1415.77V1453a37.26,37.26,0,0,1-74.52,0h37.26v-37.26Z"/><path class="cls-2" d="M74.51,1415.77V1453H37.26a37.26,37.26,0,0,1,0-74.52v37.26Z"/><path class="cls-1" d="M298.06,1341.26H260.8v37.25H223.54v-37.25a37.26,37.26,0,0,1,74.52,0Z"/><path class="cls-2" d="M372.57,1378.51a37.25,37.25,0,0,1-37.26,37.26v-37.26H298.06v-37.25h37.25A37.26,37.26,0,0,1,372.57,1378.51Z"/><path class="cls-1" d="M335.31,1415.77V1453a37.26,37.26,0,0,1-74.51,0h37.26v-37.26Z"/><path class="cls-2" d="M260.8,1415.77V1453H223.54a37.26,37.26,0,0,1,0-74.52v37.26Z"/><path class="cls-1" d="M484.34,1341.26H447.09v37.25H409.83v-37.25a37.26,37.26,0,1,1,74.51,0Z"/><path class="cls-2" d="M558.86,1378.51a37.27,37.27,0,0,1-37.26,37.26v-37.26H484.34v-37.25H521.6A37.26,37.26,0,0,1,558.86,1378.51Z"/><path class="cls-1" d="M521.6,1415.77V1453a37.26,37.26,0,0,1-74.51,0h37.25v-37.26Z"/><path class="cls-2" d="M447.09,1415.77V1453H409.83a37.26,37.26,0,0,1,0-74.52v37.26Z"/><path class="cls-1" d="M670.63,1341.26H633.37v37.25H596.11v-37.25a37.26,37.26,0,1,1,74.52,0Z"/><path class="cls-2" d="M745.14,1378.51a37.25,37.25,0,0,1-37.25,37.26v-37.26H670.63v-37.25h37.26A37.25,37.25,0,0,1,745.14,1378.51Z"/><path class="cls-1" d="M707.89,1415.77V1453a37.26,37.26,0,0,1-74.52,0h37.26v-37.26Z"/><path class="cls-2" d="M633.37,1415.77V1453H596.11a37.26,37.26,0,0,1,0-74.52v37.26Z"/><path class="cls-1" d="M856.91,1341.26H819.66v37.25H782.4v-37.25a37.26,37.26,0,1,1,74.51,0Z"/><path class="cls-2" d="M931.43,1378.51a37.25,37.25,0,0,1-37.26,37.26v-37.26H856.91v-37.25h37.26A37.26,37.26,0,0,1,931.43,1378.51Z"/><path class="cls-1" d="M894.17,1415.77V1453a37.26,37.26,0,0,1-74.51,0h37.25v-37.26Z"/><path class="cls-2" d="M819.66,1415.77V1453H782.4a37.26,37.26,0,0,1,0-74.52v37.26Z"/><path class="cls-1" d="M1043.2,1341.26h-37.26v37.25H968.69v-37.25a37.26,37.26,0,1,1,74.51,0Z"/><path class="cls-2" d="M1117.71,1378.51a37.25,37.25,0,0,1-37.25,37.26v-37.26H1043.2v-37.25h37.26A37.25,37.25,0,0,1,1117.71,1378.51Z"/><path class="cls-1" d="M1080.46,1415.77V1453a37.26,37.26,0,0,1-74.52,0h37.26v-37.26Z"/><path class="cls-2" d="M1005.94,1415.77V1453H968.69a37.26,37.26,0,0,1,0-74.52v37.26Z"/><path class="cls-1" d="M1229.49,1341.26h-37.26v37.25H1155v-37.25a37.26,37.26,0,0,1,74.52,0Z"/><path class="cls-2" d="M1304,1378.51a37.25,37.25,0,0,1-37.26,37.26v-37.26h-37.25v-37.25h37.25A37.26,37.26,0,0,1,1304,1378.51Z"/><path class="cls-1" d="M1266.74,1415.77V1453a37.26,37.26,0,0,1-74.51,0h37.26v-37.26Z"/><path class="cls-2" d="M1192.23,1415.77V1453H1155a37.26,37.26,0,0,1,0-74.52v37.26Z"/><path class="cls-1" d="M1415.77,1341.26h-37.26v37.25h-37.25v-37.25a37.26,37.26,0,1,1,74.51,0Z"/><path class="cls-2" d="M1490.29,1378.51a37.27,37.27,0,0,1-37.26,37.26v-37.26h-37.26v-37.25H1453A37.26,37.26,0,0,1,1490.29,1378.51Z"/><path class="cls-1" d="M1453,1415.77V1453a37.26,37.26,0,0,1-74.52,0h37.26v-37.26Z"/><path class="cls-2" d="M1378.51,1415.77V1453h-37.25a37.26,37.26,0,0,1,0-74.52v37.26Z"/><path class="cls-1" d="M1602.06,1341.26H1564.8v37.25h-37.26v-37.25a37.26,37.26,0,0,1,74.52,0Z"/><path class="cls-2" d="M1676.57,1378.51a37.25,37.25,0,0,1-37.26,37.26v-37.26h-37.25v-37.25h37.25A37.26,37.26,0,0,1,1676.57,1378.51Z"/><path class="cls-1" d="M1639.31,1415.77V1453a37.26,37.26,0,0,1-74.51,0h37.26v-37.26Z"/><path class="cls-2" d="M1564.8,1415.77V1453h-37.26a37.26,37.26,0,0,1,0-74.52v37.26Z"/><path class="cls-1" d="M1788.34,1341.26h-37.25v37.25h-37.26v-37.25a37.26,37.26,0,1,1,74.51,0Z"/><path class="cls-2" d="M1862.86,1378.51a37.27,37.27,0,0,1-37.26,37.26v-37.26h-37.26v-37.25h37.26A37.26,37.26,0,0,1,1862.86,1378.51Z"/><path class="cls-1" d="M1825.6,1415.77V1453a37.26,37.26,0,0,1-74.51,0h37.25v-37.26Z"/><path class="cls-2" d="M1751.09,1415.77V1453h-37.26a37.26,37.26,0,0,1,0-74.52v37.26Z"/><path class="cls-1" d="M1974.63,1341.26h-37.26v37.25h-37.26v-37.25a37.26,37.26,0,1,1,74.52,0Z"/><path class="cls-2" d="M2049.14,1378.51a37.25,37.25,0,0,1-37.25,37.26v-37.26h-37.26v-37.25h37.26A37.25,37.25,0,0,1,2049.14,1378.51Z"/><path class="cls-1" d="M2011.89,1415.77V1453a37.26,37.26,0,0,1-74.52,0h37.26v-37.26Z"/><path class="cls-2" d="M1937.37,1415.77V1453h-37.26a37.26,37.26,0,0,1,0-74.52v37.26Z"/><path class="cls-1" d="M2160.91,1341.26h-37.25v37.25H2086.4v-37.25a37.26,37.26,0,1,1,74.51,0Z"/><path class="cls-2" d="M2235.43,1378.51a37.25,37.25,0,0,1-37.26,37.26v-37.26h-37.26v-37.25h37.26A37.26,37.26,0,0,1,2235.43,1378.51Z"/><path class="cls-1" d="M2198.17,1415.77V1453a37.26,37.26,0,0,1-74.51,0h37.25v-37.26Z"/><path class="cls-2" d="M2123.66,1415.77V1453H2086.4a37.26,37.26,0,0,1,0-74.52v37.26Z"/><path class="cls-1" d="M2347.2,1341.26h-37.26v37.25h-37.25v-37.25a37.26,37.26,0,1,1,74.51,0Z"/><path class="cls-2" d="M2421.71,1378.51a37.25,37.25,0,0,1-37.25,37.26v-37.26H2347.2v-37.25h37.26A37.25,37.25,0,0,1,2421.71,1378.51Z"/><path class="cls-1" d="M2384.46,1415.77V1453a37.26,37.26,0,0,1-74.52,0h37.26v-37.26Z"/><path class="cls-2" d="M2309.94,1415.77V1453h-37.25a37.26,37.26,0,0,1,0-74.52v37.26Z"/></svg>